<svg height="512pt" viewBox="-12 0 511 512" width="512pt" xmlns="http://www.w3.org/2000/svg"><g fill-rule="evenodd"><path d="m342.339844 38.894531v463.105469h-331.839844v-463.105469l16.59375-14.445312 16.589844-14.449219 16.589844 14.449219 16.59375 14.445312 16.59375-14.445312 16.589843-14.449219 16.59375 14.449219 16.589844 14.445312 16.59375-14.445312 16.589844-14.449219 16.59375 14.449219 16.59375 14.445312 16.589843-14.445312 16.589844-14.449219 16.59375 14.449219 16.59375 14.445312 16.589844-14.445312 16.589844-14.449219 16.59375 14.449219zm0 0" fill="#ffdca0"/><path d="m99.769531 193.546875c28.921875 0 52.511719-23.589844 52.511719-52.511719 0-28.925781-23.589844-52.511718-52.511719-52.511718s-52.511719 23.585937-52.511719 52.511718c0 28.921875 23.589844 52.511719 52.511719 52.511719zm0 0" fill="#a0e557"/><path d="m245.246094 193.546875c28.921875 0 52.511718-23.589844 52.511718-52.511719 0-28.925781-23.589843-52.511718-52.511718-52.511718s-52.511719 23.585937-52.511719 52.511718c0 28.921875 23.589844 52.511719 52.511719 52.511719zm0 0" fill="#ff5d5d"/><path d="m398.824219 67.988281h78.667969v365.941407h-78.667969zm0 0" fill="#67e5dd"/><path d="m438.160156 502 19.667969-34.035156 19.664063-34.035156h-78.667969zm0 0" fill="#fec96b"/><path d="m477.492188 67.988281v-36.136719c0-12.019531-9.800782-21.851562-21.78125-21.851562h-35.105469c-11.976563 0-21.78125 9.832031-21.78125 21.851562v36.136719zm0 0" fill="#ff8e8e"/><path d="m348.90625 31.351562-33.183594-28.894531c-3.765625-3.277343-9.371094-3.277343-13.132812 0l-26.617188 23.179688-26.617187-23.179688c-3.765625-3.277343-9.371094-3.277343-13.132813 0l-26.617187 23.179688-26.621094-23.179688c-3.761719-3.277343-9.367187-3.277343-13.132813.003907l-26.617187 23.175781-26.617187-23.179688c-3.761719-3.273437-9.367188-3.277343-13.132813 0l-26.617187 23.179688-26.617188-23.179688c-3.765625-3.277343-9.367188-3.277343-13.132812 0l-33.183594 28.894531c-2.179688 1.898438-3.433594 4.648438-3.433594 7.542969v463.105469c0 5.523438 4.476562 10 10 10h125.917969c5.523437 0 10-4.476562 10-10s-4.476563-10-10-10h-115.917969v-448.554688l23.183594-20.183593 26.617187 23.175781c3.765625 3.277344 9.371094 3.277344 13.132813 0l26.617187-23.175781 26.617188 23.175781c3.765625 3.273438 9.367187 3.277344 13.132812 0l26.617188-23.175781 26.617187 23.175781c3.765625 3.277344 9.371094 3.277344 13.136719 0l26.613281-23.175781 26.617188 23.175781c3.765625 3.277344 9.371094 3.277344 13.132812 0l26.617188-23.175781 23.1875 20.183593v448.554688h-115.921875c-5.523438 0-10 4.476562-10 10s4.476562 10 10 10h125.921875c5.519531 0 10-4.476562 10-10v-463.105469c0-2.894531-1.253906-5.644531-3.433594-7.542969zm0 0"/><path d="m99.769531 78.523438c-34.46875 0-62.511719 28.042968-62.511719 62.511718s28.042969 62.511719 62.511719 62.511719 62.511719-28.042969 62.511719-62.511719-28.042969-62.511718-62.511719-62.511718zm0 105.023437c-23.441406 0-42.511719-19.070313-42.511719-42.511719s19.070313-42.511718 42.511719-42.511718c23.441407 0 42.511719 19.070312 42.511719 42.511718s-19.070312 42.511719-42.511719 42.511719zm0 0"/><path d="m245.246094 78.523438c-34.46875 0-62.511719 28.042968-62.511719 62.511718s28.042969 62.511719 62.511719 62.511719 62.511718-28.042969 62.511718-62.511719-28.042968-62.511718-62.511718-62.511718zm0 105.023437c-23.441406 0-42.511719-19.070313-42.511719-42.511719s19.070313-42.511718 42.511719-42.511718 42.511718 19.070312 42.511718 42.511718-19.070312 42.511719-42.511718 42.511719zm0 0"/><path d="m264.703125 131.035156h-38.914063c-5.519531 0-10 4.476563-10 10 0 5.519532 4.480469 10 10 10h38.914063c5.519531 0 10-4.480468 10-10 0-5.523437-4.476563-10-10-10zm0 0"/><path d="m119.226562 131.035156h-9.457031v-9.457031c0-5.523437-4.480469-10-10-10-5.523437 0-10 4.476563-10 10v9.457031h-9.457031c-5.523438 0-10 4.476563-10 10 0 5.519532 4.476562 10 10 10h9.457031v9.453125c0 5.523438 4.476563 10 10 10 5.519531 0 10-4.476562 10-10v-9.453125h9.457031c5.519532 0 10-4.480468 10-10 0-5.523437-4.480468-10-10-10zm0 0"/><path d="m152.277344 234.113281h-105.019532c-5.523437 0-10 4.476563-10 10 0 5.523438 4.476563 10 10 10h105.019532c5.523437 0 10-4.476562 10-10 0-5.523437-4.476563-10-10-10zm0 0"/><path d="m297.757812 234.113281h-105.023437c-5.519531 0-10 4.476563-10 10 0 5.523438 4.480469 10 10 10h105.023437c5.523438 0 10-4.476562 10-10 0-5.523437-4.476562-10-10-10zm0 0"/><path d="m152.277344 274.566406h-105.019532c-5.523437 0-10 4.480469-10 10 0 5.523438 4.476563 10 10 10h105.019532c5.523437 0 10-4.476562 10-10 0-5.519531-4.476563-10-10-10zm0 0"/><path d="m297.757812 274.566406h-105.023437c-5.519531 0-10 4.480469-10 10 0 5.523438 4.480469 10 10 10h105.023437c5.523438 0 10-4.476562 10-10 0-5.519531-4.476562-10-10-10zm0 0"/><path d="m152.277344 315.023438h-105.019532c-5.523437 0-10 4.480468-10 10 0 5.523437 4.476563 10 10 10h105.019532c5.523437 0 10-4.476563 10-10 0-5.523438-4.476563-10-10-10zm0 0"/><path d="m307.757812 325.023438c0-5.519532-4.476562-10-10-10h-105.023437c-5.519531 0-10 4.480468-10 10 0 5.523437 4.480469 10 10 10h105.023437c5.523438 0 10-4.476563 10-10zm0 0"/><path d="m152.277344 355.480469h-105.019532c-5.523437 0-10 4.476562-10 10 0 5.519531 4.476563 10 10 10h105.019532c5.523437 0 10-4.480469 10-10 0-5.523438-4.476563-10-10-10zm0 0"/><path d="m152.277344 395.933594h-105.019532c-5.523437 0-10 4.480468-10 10 0 5.523437 4.476563 10 10 10h105.019532c5.523437 0 10-4.476563 10-10 0-5.523438-4.476563-10-10-10zm0 0"/><path d="m152.277344 436.390625h-105.019532c-5.523437 0-10 4.476563-10 10 0 5.519531 4.476563 10 10 10h105.019532c5.523437 0 10-4.480469 10-10 0-5.523437-4.476563-10-10-10zm0 0"/><path d="m455.710938 0h-35.105469c-17.523438 0-31.78125 14.289062-31.78125 31.851562v402.082032.007812c0 .402344.03125.792969.078125 1.179688.011718.101562.03125.203125.046875.308594.042969.304687.105469.605468.179687.902343.023438.097657.046875.195313.074219.292969.101563.363281.21875.722656.359375 1.066406.007812.023438.011719.042969.023438.0625.15625.378906.339843.746094.542968 1.101563.011719.027343.019532.050781.035156.078125l39.335938 68.070312c1.789062 3.09375 5.089844 4.996094 8.660156 4.996094 3.570313 0 6.871094-1.902344 8.65625-4.996094l39.335938-68.070312c.011718-.027344.023437-.050782.035156-.078125.203125-.355469.386719-.722657.542969-1.101563.011719-.019531.015625-.042968.023437-.0625.140625-.347656.257813-.703125.359375-1.066406.027344-.097656.050781-.195312.074219-.292969.074219-.296875.132812-.597656.179688-.902343.015624-.105469.035156-.207032.046874-.308594.046876-.386719.078126-.777344.078126-1.179688 0-.003906 0-.007812 0-.011718v-402.078126c0-17.5625-14.257813-31.851562-31.78125-31.851562zm-17.550782 280.960938c-5.523437 0-10 4.476562-10 10v132.96875h-19.335937v-345.941407h19.335937v132.972657c0 5.519531 4.476563 10 10 10 5.523438 0 10-4.480469 10-10v-132.972657h19.332032v345.941407h-19.332032v-132.96875c0-5.523438-4.476562-10-10-10zm-29.335937-249.109376c0-6.535156 5.285156-11.851562 11.78125-11.851562h35.105469c6.496093 0 11.78125 5.316406 11.78125 11.851562v26.136719h-58.667969zm29.335937 450.164063-22.007812-38.085937h44.015625zm0 0"/><path d="m176.421875 492c-5.511719 0-10 4.492188-10 10s4.488281 10 10 10c5.507813 0 10-4.492188 10-10s-4.492187-10-10-10zm0 0"/><path d="m438.160156 240.960938c-5.507812 0-10 4.492187-10 10 0 5.507812 4.492188 10 10 10 5.507813 0 10-4.492188 10-10 0-5.507813-4.492187-10-10-10zm0 0"/></g></svg>