<svg height="448pt" viewBox="0 0 448 448" width="448pt" xmlns="http://www.w3.org/2000/svg"><path d="m160 200h16v32h-16zm0 0"/><path d="m272 200h16v32h-16zm0 0"/><path d="m200 296h48v56h-48zm0 0"/><path d="m320 104h-16v22.527344l16 6.226562zm0 0"/><path d="m224 0c-123.710938 0-224 100.289062-224 224s100.289062 224 224 224 224-100.289062 224-224c-.140625-123.652344-100.347656-223.859375-224-224zm152 184c0 4.417969-3.582031 8-8 8-.992188.003906-1.980469-.183594-2.902344-.542969l-21.097656-8.210937v176.753906c0 4.417969-3.582031 8-8 8h-224c-4.417969 0-8-3.582031-8-8v-176.753906l-21.097656 8.210937c-2.460938.957031-5.238282.640625-7.417969-.851562-2.179687-1.492188-3.484375-3.964844-3.484375-6.605469v-24c0-3.296875 2.023438-6.257812 5.097656-7.457031l144-56c1.859375-.726563 3.929688-.726563 5.789063 0l61.113281 23.761719v-24.304688c0-4.417969 3.582031-8 8-8h32c4.417969 0 8 3.582031 8 8v42.976562l34.902344 13.597657c3.0625 1.195312 5.085937 4.140625 5.097656 7.425781zm0 0"/><path d="m120 177.023438v174.976562h64v-64c0-4.417969 3.582031-8 8-8h64c4.417969 0 8 3.582031 8 8v64h64v-174.976562l-104-40.4375zm72 62.976562c0 4.417969-3.582031 8-8 8h-32c-4.417969 0-8-3.582031-8-8v-48c0-4.417969 3.582031-8 8-8h32c4.417969 0 8 3.582031 8 8zm64-48c0-4.417969 3.582031-8 8-8h32c4.417969 0 8 3.582031 8 8v48c0 4.417969-3.582031 8-8 8h-32c-4.417969 0-8-3.582031-8-8zm0 0"/><path d="m88 165.464844v6.832031l133.105469-51.753906c1.859375-.726563 3.929687-.726563 5.789062 0l133.105469 51.753906v-6.832031l-136-52.878906zm0 0"/></svg>