<svg height="512pt" viewBox="0 0 512 512" width="512pt" xmlns="http://www.w3.org/2000/svg" xmlns:xlink="http://www.w3.org/1999/xlink"><linearGradient id="a" gradientUnits="userSpaceOnUse" x1="0" x2="512" y1="256" y2="256"><stop offset="0" stop-color="#00f1ff"/><stop offset=".231" stop-color="#00d8ff"/><stop offset=".5138" stop-color="#00c0ff"/><stop offset=".7773" stop-color="#00b2ff"/><stop offset="1" stop-color="#00adff"/></linearGradient><path d="m512 256c0 141.386719-114.613281 256-256 256s-256-114.613281-256-256 114.613281-256 256-256 256 114.613281 256 256zm0 0" fill="url(#a)"/><g fill="#fff"><path d="m281.097656 375.074219h-104.152344c-12.484374 0-22.644531-10.160157-22.644531-22.644531v-145.546876l95.796875-95.605468c3.746094-3.128906 9.1875-3.121094 12.933594.011718l116.859375 118.65625c5.808594 5.898438 15.308594 5.976563 21.210937.160157 5.902344-5.8125 5.976563-15.308594.164063-21.210938l-117.253906-119.058593c-.214844-.21875-.4375-.429688-.667969-.636719-15.207031-13.652344-38.1875-13.703125-53.449219-.109375-.210937.1875-.417969.382812-.621093.585937l-131.9375 131.675781c-5.863282 5.851563-5.871094 15.347657-.019532 21.210938 2.929688 2.9375 6.773438 4.40625 10.617188 4.40625 3.832031 0 7.667968-1.460938 10.59375-4.382812l5.777344-5.765626v115.609376c0 29.027343 23.613281 52.644531 52.644531 52.644531h104.148437c8.285156 0 15-6.714844 15-15 0-8.285157-6.714844-15-15-15zm0 0"/><path d="m378.34375 316.667969c0 6.929687-5.617188 12.546875-12.546875 12.546875s-12.550781-5.617188-12.550781-12.546875c0-6.929688 5.621094-12.550781 12.550781-12.550781s12.546875 5.621093 12.546875 12.550781zm0 0"/><path d="m409.246094 273.386719c-5.761719-12.898438-18.738282-21.25-33.089844-21.285157h-39.125c-.03125 0-.0625 0-.089844 0-15.140625 0-28.351562 8.933594-33.679687 22.785157-.519531 1.347656-1.125 2.96875-1.773438 4.820312h-80.398437c-4.058594 0-7.941406 1.640625-10.765625 4.550781l-21.554688 22.203126c-5.675781 5.847656-5.644531 15.152343.066407 20.964843l21.957031 22.34375c2.820312 2.867188 6.675781 4.484375 10.699219 4.484375h40.78125c8.28125 0 15-6.71875 15-15 0-8.285156-6.71875-15-15-15h-34.492188l-7.28125-7.40625 6.929688-7.140625h85.226562c6.910156 0 12.925781-4.722656 14.570312-11.433593.988282-4.035157 2.234376-7.929688 4.039063-12.625 1.003906-2.617188 3.585937-3.546876 5.710937-3.546876h.015626 39.128906c2.570312.003907 4.769531 1.355469 5.738281 3.523438 3.273437 7.320312 7.179687 18.640625 7.207031 30.996094.027344 12.453125-3.878906 24.042968-7.160156 31.570312-.972656 2.226563-3.167969 3.664063-5.601562 3.664063-.007813 0-.011719 0-.015626 0l-39.636718-.089844c-2.554688-.007813-4.84375-1.558594-5.828125-3.949219-1.417969-3.4375-2.652344-7.378906-3.769531-12.054687-1.929688-8.058594-10.03125-13.027344-18.082032-11.097657-8.054687 1.925782-13.023437 10.019532-11.09375 18.078126 1.484375 6.214843 3.191406 11.617187 5.210938 16.511718 5.625 13.640625 18.769531 22.476563 33.492187 22.511719l39.632813.089844h.089844c14.367187 0 27.355468-8.5 33.101562-21.671875 4.429688-10.160156 9.703125-25.980469 9.660156-43.632813-.039062-17.613281-5.363281-33.195312-9.820312-43.164062zm0 0"/></g></svg>